<?xml version="1.0" encoding="UTF-8" standalone="no"?>
<!DOCTYPE svg PUBLIC "-//W3C//DTD SVG 1.1//EN" "http://www.w3.org/Graphics/SVG/1.1/DTD/svg11.dtd">
<svg xmlns="http://www.w3.org/2000/svg" version="1.1" viewBox="0.00 0.00 1024.00 768.00">
<path fill="none" stroke-width="1.00" stroke="#3d8b2b" vector-effect="non-scaling-stroke" d="
  M 1024.00 0.00
  L 1024.00 127.85
  Q 1010.06 129.38 1002.93 129.28
  Q 981.03 128.97 965.78 128.84
  Q 951.11 128.71 928.61 129.16
  Q 902.46 129.68 874.52 129.43
  Q 854.08 129.26 851.71 129.16
  C 835.94 128.52 821.83 128.77 808.80 130.26
  C 800.64 131.20 791.45 131.14 782.79 131.26
  Q 778.79 127.80 776.60 127.17
  Q 767.03 124.40 760.25 131.23
  Q 754.60 130.55 752.41 130.46
  Q 735.15 129.83 717.89 129.08
  C 703.45 128.46 689.93 128.37 676.21 131.60
  Q 650.70 111.66 621.39 98.59
  C 583.15 81.54 541.07 75.72 499.12 77.27
  Q 468.55 78.39 441.34 85.55
  Q 400.64 96.26 364.87 119.72
  C 355.71 124.27 347.72 127.19 338.89 127.79
  Q 331.17 128.32 318.59 128.31
  Q 288.31 128.27 257.92 128.09
  Q 247.10 123.16 238.58 131.80
  Q 213.83 127.26 183.30 127.94
  C 174.96 128.13 162.54 126.74 152.56 126.96
  C 137.91 127.28 126.55 127.49 113.47 127.12
  Q 97.17 126.67 79.90 126.87
  C 71.45 126.97 58.59 128.36 48.27 128.18
  C 31.95 127.89 18.24 126.92 0.00 128.01
  L 0.00 0.00
  L 1024.00 0.00
  Z"
/>
<path fill="none" stroke-width="1.00" stroke="#091530" vector-effect="non-scaling-stroke" d="
  M 676.21 131.60
  Q 710.48 159.22 733.91 196.59
  Q 737.48 202.29 742.47 211.27
  Q 775.34 271.78 777.53 341.08
  C 779.53 387.03 768.56 434.11 746.06 474.26
  Q 727.48 507.35 700.39 533.72
  Q 678.84 554.50 654.16 571.31
  A 2.26 2.26 0.0 0 0 653.17 573.20
  L 653.30 594.86
  L 653.13 606.78
  A 2.25 2.24 -80.1 0 0 654.63 608.93
  Q 712.20 629.07 767.93 650.96
  C 790.23 660.43 813.72 672.37 830.41 690.23
  Q 857.65 719.39 862.04 760.70
  Q 862.27 762.87 863.10 768.00
  L 825.93 768.00
  C 824.73 761.51 823.79 754.36 821.82 748.53
  Q 811.85 718.88 786.48 701.16
  C 777.81 695.11 765.95 689.94 756.28 686.31
  Q 743.74 681.60 650.27 647.46
  C 643.93 645.15 639.46 643.31 631.85 643.20
  Q 617.51 637.73 617.39 621.74
  Q 617.30 609.72 617.36 578.38
  Q 617.36 575.48 618.77 574.02
  Q 647.06 544.72 654.13 504.22
  Q 655.99 493.58 657.39 482.84
  Q 673.34 483.04 679.69 482.65
  C 694.83 481.72 707.52 473.92 714.28 460.10
  C 716.85 454.84 717.28 449.43 717.24 443.25
  Q 717.11 425.01 713.22 408.56
  Q 706.72 381.08 685.75 362.38
  A 5.27 5.24 17.5 0 1 684.03 359.10
  C 681.27 336.46 677.50 315.25 669.07 294.97
  C 652.26 254.57 619.82 221.81 578.53 206.46
  Q 549.15 195.54 519.50 195.10
  Q 503.11 194.85 497.53 195.17
  C 459.23 197.33 422.54 211.58 394.46 237.97
  Q 369.22 261.69 355.92 292.92
  Q 345.61 317.12 342.26 342.76
  Q 341.38 349.50 340.60 358.32
  A 4.77 4.76 -17.1 0 1 338.86 361.59
  Q 323.45 374.11 315.38 392.28
  A 0.29 0.28 -48.1 0 1 314.87 392.31
  Q 314.68 391.97 314.66 391.66
  Q 310.26 371.86 310.59 350.00
  Q 311.14 313.45 321.17 282.84
  Q 323.71 275.07 326.11 267.64
  Q 328.42 260.53 324.46 255.48
  C 319.59 249.26 310.29 248.02 304.65 253.95
  Q 302.34 256.37 300.66 260.70
  C 280.04 313.94 278.38 374.52 299.92 427.80
  Q 302.38 433.91 306.94 442.85
  Q 306.52 450.85 307.98 455.24
  C 313.63 472.21 327.94 482.03 345.75 482.76
  Q 353.59 483.09 366.44 482.83
  Q 366.72 483.45 366.70 484.45
  Q 366.67 485.44 366.76 486.07
  Q 368.88 501.43 370.55 509.24
  C 375.60 532.85 387.46 556.65 405.00 573.55
  Q 406.32 574.82 406.33 577.27
  Q 406.49 611.05 406.25 622.26
  Q 405.90 638.31 389.97 643.82
  Q 385.88 642.64 380.41 644.70
  Q 350.48 655.97 295.71 675.81
  Q 285.08 679.66 274.30 683.82
  Q 257.24 690.41 253.09 692.34
  Q 214.29 710.43 201.71 750.78
  C 200.02 756.18 199.13 762.21 198.17 768.00
  L 161.61 768.00
  Q 163.20 737.73 178.10 711.40
  Q 181.98 704.55 187.72 697.46
  C 191.19 693.16 195.22 688.29 199.45 684.50
  Q 215.21 670.41 233.13 661.13
  Q 242.46 656.30 254.30 651.24
  Q 309.32 629.61 365.42 610.62
  Q 367.96 609.76 370.28 608.68
  A 0.85 0.85 0.0 0 0 370.77 607.91
  L 370.74 598.20
  L 370.82 572.98
  A 2.23 2.21 -72.8 0 0 369.86 571.15
  Q 342.50 552.52 320.10 529.17
  Q 295.47 503.67 277.85 473.27
  Q 246.73 416.63 245.96 352.05
  Q 245.81 322.49 250.48 296.49
  Q 258.00 254.61 278.87 215.50
  Q 303.20 169.17 343.36 135.61
  Q 347.95 131.78 364.87 119.72
  Q 400.64 96.26 441.34 85.55
  Q 468.55 78.39 499.12 77.27
  C 541.07 75.72 583.15 81.54 621.39 98.59
  Q 650.70 111.66 676.21 131.60
  Z
  M 334.52 232.95
  C 338.81 234.32 344.62 234.03 347.70 229.93
  Q 351.19 225.27 355.86 219.37
  Q 376.85 192.82 405.12 173.94
  Q 441.11 149.89 485.98 143.97
  Q 494.30 142.87 506.55 142.75
  Q 519.60 142.62 527.14 143.20
  Q 541.37 144.31 547.40 145.35
  Q 588.87 152.53 623.25 176.51
  C 659.72 201.95 686.53 237.03 700.06 279.44
  C 704.05 291.97 723.00 290.98 724.89 277.62
  Q 725.51 273.27 724.49 270.28
  C 717.70 250.32 708.88 231.38 697.13 214.03
  C 668.60 171.91 626.35 139.53 577.73 125.29
  Q 549.20 116.93 520.99 116.15
  Q 506.42 115.75 496.99 116.29
  C 462.92 118.21 429.17 127.85 399.74 145.47
  Q 381.38 156.45 362.96 172.65
  Q 344.74 188.68 330.08 209.08
  Q 325.90 214.89 325.53 216.60
  Q 322.79 229.22 334.52 232.95
  Z"
/>
<path fill="none" stroke-width="1.00" stroke="#f0ac44" vector-effect="non-scaling-stroke" d="
  M 347.70 229.93
  C 344.62 234.03 338.81 234.32 334.52 232.95
  Q 322.79 229.22 325.53 216.60
  Q 325.90 214.89 330.08 209.08
  Q 344.74 188.68 362.96 172.65
  Q 381.38 156.45 399.74 145.47
  C 429.17 127.85 462.92 118.21 496.99 116.29
  Q 506.42 115.75 520.99 116.15
  Q 549.20 116.93 577.73 125.29
  C 626.35 139.53 668.60 171.91 697.13 214.03
  C 708.88 231.38 717.70 250.32 724.49 270.28
  Q 725.51 273.27 724.89 277.62
  C 723.00 290.98 704.05 291.97 700.06 279.44
  C 686.53 237.03 659.72 201.95 623.25 176.51
  Q 588.87 152.53 547.40 145.35
  Q 541.37 144.31 527.14 143.20
  Q 519.60 142.62 506.55 142.75
  Q 494.30 142.87 485.98 143.97
  Q 441.11 149.89 405.12 173.94
  Q 376.85 192.82 355.86 219.37
  Q 351.19 225.27 347.70 229.93
  Z"
/>
<path fill="none" stroke-width="1.00" stroke="#3c8737" vector-effect="non-scaling-stroke" d="
  M 364.87 119.72
  Q 347.95 131.78 343.36 135.61
  Q 303.20 169.17 278.87 215.50
  C 265.08 213.78 253.36 213.79 240.49 213.60
  Q 231.07 213.47 217.58 210.24
  C 225.78 194.03 236.15 178.97 247.90 164.47
  C 252.51 158.79 257.18 154.29 261.86 149.08
  C 267.89 142.39 265.69 132.45 257.92 128.09
  Q 288.31 128.27 318.59 128.31
  Q 331.17 128.32 338.89 127.79
  C 347.72 127.19 355.71 124.27 364.87 119.72
  Z"
/>
<path fill="none" stroke-width="1.00" stroke="#3c8737" vector-effect="non-scaling-stroke" d="
  M 238.58 131.80
  Q 208.43 162.84 189.18 202.09
  C 165.20 202.00 140.37 201.59 117.31 201.63
  Q 74.46 201.70 31.61 201.64
  Q 15.56 201.61 0.00 197.84
  L 0.00 128.01
  C 18.24 126.92 31.95 127.89 48.27 128.18
  C 58.59 128.36 71.45 126.97 79.90 126.87
  Q 97.17 126.67 113.47 127.12
  C 126.55 127.49 137.91 127.28 152.56 126.96
  C 162.54 126.74 174.96 128.13 183.30 127.94
  Q 213.83 127.26 238.58 131.80
  Z"
/>
<path fill="none" stroke-width="1.00" stroke="#3c8737" vector-effect="non-scaling-stroke" d="
  M 1024.00 127.85
  L 1024.00 197.82
  Q 1010.38 201.69 999.10 201.67
  Q 942.46 201.59 885.83 201.61
  C 865.40 201.62 850.67 201.46 833.58 204.03
  C 820.60 177.88 803.10 152.31 782.79 131.26
  C 791.45 131.14 800.64 131.20 808.80 130.26
  C 821.83 128.77 835.94 128.52 851.71 129.16
  Q 854.08 129.26 874.52 129.43
  Q 902.46 129.68 928.61 129.16
  Q 951.11 128.71 965.78 128.84
  Q 981.03 128.97 1002.93 129.28
  Q 1010.06 129.38 1024.00 127.85
  Z"
/>
<path fill="none" stroke-width="1.00" stroke="#f0ac44" vector-effect="non-scaling-stroke" d="
  M 257.92 128.09
  C 265.69 132.45 267.89 142.39 261.86 149.08
  C 257.18 154.29 252.51 158.79 247.90 164.47
  C 236.15 178.97 225.78 194.03 217.58 210.24
  Q 192.65 258.59 187.99 313.51
  Q 186.52 330.82 186.33 336.66
  A 0.49 0.49 0.0 0 0 186.82 337.17
  Q 202.88 337.06 209.95 337.01
  Q 214.52 336.97 216.93 338.23
  C 220.87 340.29 223.41 344.91 223.93 349.28
  Q 224.72 356.95 219.75 362.10
  C 217.75 364.17 214.03 366.19 211.25 366.15
  Q 191.33 365.84 190.76 365.83
  A 3.03 2.99 51.7 0 1 190.03 365.74
  Q 188.42 365.35 187.63 365.41
  A 0.76 0.75 -3.9 0 0 186.93 366.20
  Q 189.69 419.37 211.24 468.02
  Q 212.58 471.05 213.81 473.70
  Q 229.58 507.56 253.13 536.12
  Q 258.58 542.85 264.48 549.12
  C 268.42 553.30 269.39 555.52 268.68 560.95
  C 267.46 570.17 257.91 574.85 249.68 571.90
  Q 246.51 570.76 240.25 563.90
  Q 226.66 548.98 215.06 532.43
  Q 210.20 525.05 205.48 517.57
  Q 190.77 494.27 180.29 468.77
  Q 173.77 452.57 169.21 435.71
  Q 159.16 397.37 158.14 357.75
  Q 157.87 347.25 157.99 336.69
  Q 157.86 305.33 164.49 274.35
  Q 172.20 236.67 189.18 202.09
  Q 208.43 162.84 238.58 131.80
  Q 247.10 123.16 257.92 128.09
  Z"
/>
<path fill="none" stroke-width="1.00" stroke="#f0ac44" vector-effect="non-scaling-stroke" d="
  M 782.79 131.26
  C 803.10 152.31 820.60 177.88 833.58 204.03
  Q 850.17 238.72 858.19 276.30
  Q 863.68 302.95 864.79 327.00
  Q 865.64 345.28 864.92 370.13
  Q 862.97 402.64 854.68 434.19
  Q 849.70 452.25 842.76 469.83
  Q 829.32 502.97 808.50 532.27
  Q 795.34 551.53 778.66 567.90
  C 773.69 572.78 766.83 574.32 760.74 570.78
  C 754.31 567.03 752.30 557.53 756.89 551.35
  C 760.29 546.77 764.61 543.13 768.04 538.51
  Q 792.32 510.93 808.18 477.71
  Q 824.51 444.07 831.42 407.03
  Q 835.45 385.43 836.56 365.88
  A 0.47 0.47 0.0 0 0 836.08 365.38
  L 810.05 366.12
  A 5.92 5.91 55.1 0 1 807.64 365.69
  Q 793.02 359.75 799.94 342.94
  Q 804.22 337.04 811.00 337.09
  Q 823.04 337.17 836.26 337.23
  A 0.59 0.58 -1.8 0 0 836.85 336.61
  Q 836.41 329.31 835.55 318.03
  Q 833.35 289.18 824.14 259.08
  Q 817.83 238.42 806.42 215.26
  Q 804.17 210.69 801.80 206.23
  Q 785.11 175.39 760.71 150.27
  Q 756.48 145.92 756.76 140.01
  Q 756.99 135.17 760.25 131.23
  Q 767.03 124.40 776.60 127.17
  Q 778.79 127.80 782.79 131.26
  Z"
/>
<path fill="none" stroke-width="1.00" stroke="#3c8737" vector-effect="non-scaling-stroke" d="
  M 760.25 131.23
  Q 756.99 135.17 756.76 140.01
  Q 756.48 145.92 760.71 150.27
  Q 785.11 175.39 801.80 206.23
  Q 790.48 207.72 784.60 207.78
  C 767.88 207.97 756.66 207.91 742.47 211.27
  Q 737.48 202.29 733.91 196.59
  Q 710.48 159.22 676.21 131.60
  C 689.93 128.37 703.45 128.46 717.89 129.08
  Q 735.15 129.83 752.41 130.46
  Q 754.60 130.55 760.25 131.23
  Z"
/>
<path fill="none" stroke-width="1.00" stroke="#63d6bd" vector-effect="non-scaling-stroke" d="
  M 657.39 482.84
  L 660.54 457.21
  Q 668.67 456.92 676.68 456.81
  C 682.22 456.73 686.84 455.06 689.79 450.27
  C 691.90 446.85 691.67 441.13 691.52 436.52
  Q 691.15 425.54 689.21 415.06
  Q 686.73 401.71 676.25 388.80
  C 673.01 384.81 667.93 384.55 663.25 384.55
  Q 450.03 384.55 356.81 384.57
  C 353.64 384.58 351.08 384.96 348.87 386.95
  C 339.03 395.81 334.26 407.74 332.98 421.62
  Q 331.63 436.27 331.99 443.52
  Q 332.62 456.06 345.51 456.66
  Q 356.54 457.18 363.68 456.95
  L 366.44 482.83
  Q 353.59 483.09 345.75 482.76
  C 327.94 482.03 313.63 472.21 307.98 455.24
  Q 306.52 450.85 306.94 442.85
  Q 307.50 442.34 307.59 441.20
  A 1.79 1.78 -53.4 0 0 307.47 440.37
  Q 306.72 438.49 306.82 437.45
  Q 307.64 429.50 307.72 426.74
  Q 308.07 415.54 310.54 406.75
  Q 313.85 395.00 314.66 391.66
  Q 314.68 391.97 314.87 392.31
  A 0.29 0.28 -48.1 0 0 315.38 392.28
  Q 323.45 374.11 338.86 361.59
  A 4.77 4.76 -17.1 0 0 340.60 358.32
  Q 341.38 349.50 342.26 342.76
  Q 345.61 317.12 355.92 292.92
  Q 369.22 261.69 394.46 237.97
  C 422.54 211.58 459.23 197.33 497.53 195.17
  Q 503.11 194.85 519.50 195.10
  Q 549.15 195.54 578.53 206.46
  C 619.82 221.81 652.26 254.57 669.07 294.97
  C 677.50 315.25 681.27 336.46 684.03 359.10
  A 5.27 5.24 17.5 0 0 685.75 362.38
  Q 706.72 381.08 713.22 408.56
  Q 717.11 425.01 717.24 443.25
  C 717.28 449.43 716.85 454.84 714.28 460.10
  C 707.52 473.92 694.83 481.72 679.69 482.65
  Q 673.34 483.04 657.39 482.84
  Z
  M 511.96 358.07
  Q 651.29 358.06 656.34 358.05
  A 0.85 0.85 0.0 0 0 657.18 357.14
  C 653.13 304.59 626.57 256.25 577.29 233.95
  Q 553.67 223.26 529.70 221.46
  Q 523.62 221.01 511.96 221.01
  Q 500.29 221.01 494.21 221.46
  Q 470.24 223.26 446.62 233.95
  C 397.34 256.26 370.79 304.60 366.74 357.15
  A 0.85 0.85 0.0 0 0 367.59 358.06
  Q 372.63 358.07 511.96 358.07
  Z"
/>
<path fill="none" stroke-width="1.00" stroke="#3b8543" vector-effect="non-scaling-stroke" d="
  M 189.18 202.09
  Q 172.20 236.67 164.49 274.35
  L 0.00 274.00
  L 0.00 197.84
  Q 15.56 201.61 31.61 201.64
  Q 74.46 201.70 117.31 201.63
  C 140.37 201.59 165.20 202.00 189.18 202.09
  Z"
/>
<path fill="none" stroke-width="1.00" stroke="#3b8543" vector-effect="non-scaling-stroke" d="
  M 1024.00 197.82
  L 1024.00 273.25
  Q 1010.34 274.32 1006.23 274.30
  Q 911.90 274.03 878.68 274.33
  Q 871.26 274.40 858.19 276.30
  Q 850.17 238.72 833.58 204.03
  C 850.67 201.46 865.40 201.62 885.83 201.61
  Q 942.46 201.59 999.10 201.67
  Q 1010.38 201.69 1024.00 197.82
  Z"
/>
<path fill="none" stroke-width="1.00" stroke="#3b8543" vector-effect="non-scaling-stroke" d="
  M 801.80 206.23
  Q 804.17 210.69 806.42 215.26
  Q 817.83 238.42 824.14 259.08
  Q 833.35 289.18 835.55 318.03
  Q 836.41 329.31 836.85 336.61
  A 0.59 0.58 -1.8 0 1 836.26 337.23
  Q 823.04 337.17 811.00 337.09
  Q 804.22 337.04 799.94 342.94
  Q 789.02 340.94 777.53 341.08
  Q 775.34 271.78 742.47 211.27
  C 756.66 207.91 767.88 207.97 784.60 207.78
  Q 790.48 207.72 801.80 206.23
  Z"
/>
<path fill="none" stroke-width="1.00" stroke="#3b8543" vector-effect="non-scaling-stroke" d="
  M 278.87 215.50
  Q 258.00 254.61 250.48 296.49
  Q 245.81 322.49 245.96 352.05
  C 238.85 344.03 232.91 343.39 223.93 349.28
  C 223.41 344.91 220.87 340.29 216.93 338.23
  Q 214.52 336.97 209.95 337.01
  Q 202.88 337.06 186.82 337.17
  A 0.49 0.49 0.0 0 1 186.33 336.66
  Q 186.52 330.82 187.99 313.51
  Q 192.65 258.59 217.58 210.24
  Q 231.07 213.47 240.49 213.60
  C 253.36 213.79 265.08 213.78 278.87 215.50
  Z"
/>
<path fill="none" stroke-width="1.00" stroke="#091530" vector-effect="non-scaling-stroke" d="
  M 511.96 221.01
  Q 523.62 221.01 529.70 221.46
  Q 553.67 223.26 577.29 233.95
  C 626.57 256.25 653.13 304.59 657.18 357.14
  A 0.85 0.85 0.0 0 1 656.34 358.05
  Q 651.29 358.06 511.96 358.07
  Q 372.63 358.07 367.59 358.06
  A 0.85 0.85 0.0 0 1 366.74 357.15
  C 370.79 304.60 397.34 256.26 446.62 233.95
  Q 470.24 223.26 494.21 221.46
  Q 500.29 221.01 511.96 221.01
  Z"
/>
<path fill="none" stroke-width="1.00" stroke="#f0ac44" vector-effect="non-scaling-stroke" d="
  M 314.66 391.66
  Q 313.85 395.00 310.54 406.75
  Q 308.07 415.54 307.72 426.74
  Q 307.64 429.50 306.82 437.45
  Q 306.72 438.49 307.47 440.37
  A 1.79 1.78 -53.4 0 1 307.59 441.20
  Q 307.50 442.34 306.94 442.85
  Q 302.38 433.91 299.92 427.80
  C 278.38 374.52 280.04 313.94 300.66 260.70
  Q 302.34 256.37 304.65 253.95
  C 310.29 248.02 319.59 249.26 324.46 255.48
  Q 328.42 260.53 326.11 267.64
  Q 323.71 275.07 321.17 282.84
  Q 311.14 313.45 310.59 350.00
  Q 310.26 371.86 314.66 391.66
  Z"
/>
<path fill="none" stroke-width="1.00" stroke="#398252" vector-effect="non-scaling-stroke" d="
  M 164.49 274.35
  Q 157.86 305.33 157.99 336.69
  Q 149.21 339.68 140.09 340.57
  A 0.56 0.56 0.0 0 0 139.59 341.09
  L 139.24 347.34
  Q 139.33 339.98 139.14 332.76
  C 138.94 325.66 134.69 320.12 127.65 319.21
  C 118.93 318.09 112.02 321.74 110.42 330.75
  Q 110.02 333.02 110.27 340.53
  L 0.00 340.26
  L 0.00 274.00
  L 164.49 274.35
  Z"
/>
<path fill="none" stroke-width="1.00" stroke="#398252" vector-effect="non-scaling-stroke" d="
  M 1024.00 273.25
  L 1024.00 370.41
  Q 1010.37 368.79 996.63 368.72
  C 968.63 368.59 940.52 369.02 912.56 367.53
  Q 912.75 351.84 912.95 336.14
  Q 913.03 330.52 912.34 328.41
  C 909.47 319.61 898.77 316.53 891.05 320.70
  Q 884.24 324.39 883.90 333.26
  Q 883.13 353.29 884.31 372.53
  Q 875.73 370.09 864.92 370.13
  Q 865.64 345.28 864.79 327.00
  Q 863.68 302.95 858.19 276.30
  Q 871.26 274.40 878.68 274.33
  Q 911.90 274.03 1006.23 274.30
  Q 1010.34 274.32 1024.00 273.25
  Z"
/>
<path fill="none" stroke-width="1.00" stroke="#f0ac44" vector-effect="non-scaling-stroke" d="
  M 139.24 347.34
  Q 139.34 354.80 139.29 362.32
  Q 139.25 370.10 137.74 372.91
  Q 134.36 379.19 126.79 379.89
  C 117.38 380.75 110.39 375.57 110.37 365.74
  Q 110.34 353.15 110.27 340.53
  Q 110.02 333.02 110.42 330.75
  C 112.02 321.74 118.93 318.09 127.65 319.21
  C 134.69 320.12 138.94 325.66 139.14 332.76
  Q 139.33 339.98 139.24 347.34
  Z"
/>
<path fill="none" stroke-width="1.00" stroke="#f0ac44" vector-effect="non-scaling-stroke" d="
  M 912.56 367.53
  C 911.62 375.34 905.32 380.48 897.50 380.00
  Q 889.72 379.52 884.31 372.53
  Q 883.13 353.29 883.90 333.26
  Q 884.24 324.39 891.05 320.70
  C 898.77 316.53 909.47 319.61 912.34 328.41
  Q 913.03 330.52 912.95 336.14
  Q 912.75 351.84 912.56 367.53
  Z"
/>
<path fill="none" stroke-width="1.00" stroke="#388061" vector-effect="non-scaling-stroke" d="
  M 157.99 336.69
  Q 157.87 347.25 158.14 357.75
  Q 159.16 397.37 169.21 435.71
  C 154.19 434.80 141.07 435.07 126.96 434.73
  Q 109.44 434.30 101.39 434.30
  C 60.46 434.31 39.42 434.16 9.63 435.03
  Q 6.21 435.13 0.00 433.99
  L 0.00 340.26
  L 110.27 340.53
  Q 110.34 353.15 110.37 365.74
  C 110.39 375.57 117.38 380.75 126.79 379.89
  Q 134.36 379.19 137.74 372.91
  Q 139.25 370.10 139.29 362.32
  Q 139.34 354.80 139.24 347.34
  L 139.59 341.09
  A 0.56 0.56 0.0 0 1 140.09 340.57
  Q 149.21 339.68 157.99 336.69
  Z"
/>
<path fill="none" stroke-width="1.00" stroke="#388061" vector-effect="non-scaling-stroke" d="
  M 799.94 342.94
  Q 793.02 359.75 807.64 365.69
  A 5.92 5.91 55.1 0 0 810.05 366.12
  L 836.08 365.38
  A 0.47 0.47 0.0 0 1 836.56 365.88
  Q 835.45 385.43 831.42 407.03
  Q 824.51 444.07 808.18 477.71
  Q 787.90 477.18 767.97 477.06
  Q 759.23 477.01 746.06 474.26
  C 768.56 434.11 779.53 387.03 777.53 341.08
  Q 789.02 340.94 799.94 342.94
  Z"
/>
<path fill="none" stroke-width="1.00" stroke="#388061" vector-effect="non-scaling-stroke" d="
  M 245.96 352.05
  Q 246.73 416.63 277.85 473.27
  Q 245.80 472.07 213.81 473.70
  Q 212.58 471.05 211.24 468.02
  Q 189.69 419.37 186.93 366.20
  A 0.76 0.75 -3.9 0 1 187.63 365.41
  Q 188.42 365.35 190.03 365.74
  A 3.03 2.99 51.7 0 0 190.76 365.83
  Q 191.33 365.84 211.25 366.15
  C 214.03 366.19 217.75 364.17 219.75 362.10
  Q 224.72 356.95 223.93 349.28
  C 232.91 343.39 238.85 344.03 245.96 352.05
  Z"
/>
<path fill="none" stroke-width="1.00" stroke="#388061" vector-effect="non-scaling-stroke" d="
  M 1024.00 370.41
  L 1024.00 437.99
  Q 1010.38 434.95 999.08 434.94
  C 984.63 434.92 971.78 434.47 958.66 434.68
  Q 930.82 435.14 873.88 434.76
  Q 862.04 434.69 854.68 434.19
  Q 862.97 402.64 864.92 370.13
  Q 875.73 370.09 884.31 372.53
  Q 889.72 379.52 897.50 380.00
  C 905.32 380.48 911.62 375.34 912.56 367.53
  C 940.52 369.02 968.63 368.59 996.63 368.72
  Q 1010.37 368.79 1024.00 370.41
  Z"
/>
<path fill="none" stroke-width="1.00" stroke="#091530" vector-effect="non-scaling-stroke" d="
  M 660.54 457.21
  Q 662.13 442.05 661.94 426.00
  C 661.84 416.58 655.27 410.32 646.00 410.33
  Q 513.62 410.40 386.54 410.39
  C 381.69 410.39 376.08 410.04 372.41 411.18
  C 366.87 412.90 361.99 418.04 361.90 424.25
  Q 361.65 441.29 363.68 456.95
  Q 356.54 457.18 345.51 456.66
  Q 332.62 456.06 331.99 443.52
  Q 331.63 436.27 332.98 421.62
  C 334.26 407.74 339.03 395.81 348.87 386.95
  C 351.08 384.96 353.64 384.58 356.81 384.57
  Q 450.03 384.55 663.25 384.55
  C 667.93 384.55 673.01 384.81 676.25 388.80
  Q 686.73 401.71 689.21 415.06
  Q 691.15 425.54 691.52 436.52
  C 691.67 441.13 691.90 446.85 689.79 450.27
  C 686.84 455.06 682.22 456.73 676.68 456.81
  Q 668.67 456.92 660.54 457.21
  Z"
/>
<path fill="none" stroke-width="1.00" stroke="#7244f0" vector-effect="non-scaling-stroke" d="
  M 660.54 457.21
  L 657.39 482.84
  Q 655.99 493.58 654.13 504.22
  Q 647.06 544.72 618.77 574.02
  Q 617.36 575.48 617.36 578.38
  Q 617.30 609.72 617.39 621.74
  Q 617.51 637.73 631.85 643.20
  Q 631.65 643.74 633.09 644.98
  A 0.54 0.54 0.0 0 1 633.17 645.72
  L 620.51 662.98
  C 615.22 662.49 609.51 658.41 605.99 654.79
  Q 594.67 643.10 594.01 627.15
  Q 593.30 609.70 593.91 596.33
  A 0.51 0.51 0.0 0 0 593.08 595.92
  Q 581.28 605.82 567.37 613.00
  C 535.38 629.49 497.71 630.87 464.65 615.56
  C 451.76 609.59 440.05 603.02 431.38 595.34
  A 0.43 0.42 21.0 0 0 430.67 595.65
  Q 430.58 618.84 430.58 619.25
  C 430.59 624.96 430.05 632.17 428.93 636.14
  Q 423.40 655.82 404.08 663.57
  Q 395.21 654.82 389.97 643.82
  Q 405.90 638.31 406.25 622.26
  Q 406.49 611.05 406.33 577.27
  Q 406.32 574.82 405.00 573.55
  C 387.46 556.65 375.60 532.85 370.55 509.24
  Q 368.88 501.43 366.76 486.07
  Q 366.67 485.44 366.70 484.45
  Q 366.72 483.45 366.44 482.83
  L 363.68 456.95
  Q 361.65 441.29 361.90 424.25
  C 361.99 418.04 366.87 412.90 372.41 411.18
  C 376.08 410.04 381.69 410.39 386.54 410.39
  Q 513.62 410.40 646.00 410.33
  C 655.27 410.32 661.84 416.58 661.94 426.00
  Q 662.13 442.05 660.54 457.21
  Z
  M 635.39 435.68
  L 388.06 435.68
  A 0.60 0.60 0.0 0 0 387.46 436.32
  Q 388.76 456.43 391.37 481.40
  Q 392.80 495.10 395.68 506.33
  C 405.12 543.18 433.46 572.43 467.13 588.61
  Q 483.01 596.25 499.31 598.80
  Q 516.76 601.54 535.10 597.09
  C 562.60 590.41 586.06 573.60 604.16 552.28
  Q 617.79 536.22 625.35 515.81
  C 628.15 508.23 629.74 500.28 630.92 492.24
  Q 635.02 464.43 636.17 436.49
  A 0.78 0.78 0.0 0 0 635.39 435.68
  Z"
/>
<path fill="none" stroke-width="1.00" stroke="#377e6e" vector-effect="non-scaling-stroke" d="
  M 169.21 435.71
  Q 173.77 452.57 180.29 468.77
  Q 160.18 468.30 140.14 468.26
  Q 81.07 468.12 22.00 468.23
  Q 13.77 468.24 0.00 466.10
  L 0.00 433.99
  Q 6.21 435.13 9.63 435.03
  C 39.42 434.16 60.46 434.31 101.39 434.30
  Q 109.44 434.30 126.96 434.73
  C 141.07 435.07 154.19 434.80 169.21 435.71
  Z"
/>
<path fill="none" stroke-width="1.00" stroke="#377e6e" vector-effect="non-scaling-stroke" d="
  M 1024.00 437.99
  L 1024.00 477.64
  C 1014.03 470.06 1004.51 468.40 992.27 468.32
  Q 950.26 468.05 867.76 468.20
  Q 855.34 468.23 842.76 469.83
  Q 849.70 452.25 854.68 434.19
  Q 862.04 434.69 873.88 434.76
  Q 930.82 435.14 958.66 434.68
  C 971.78 434.47 984.63 434.92 999.08 434.94
  Q 1010.38 434.95 1024.00 437.99
  Z"
/>
<path fill="none" stroke-width="1.00" stroke="#091530" vector-effect="non-scaling-stroke" d="
  M 635.39 435.68
  A 0.78 0.78 0.0 0 1 636.17 436.49
  Q 635.02 464.43 630.92 492.24
  C 629.74 500.28 628.15 508.23 625.35 515.81
  Q 617.79 536.22 604.16 552.28
  C 586.06 573.60 562.60 590.41 535.10 597.09
  Q 516.76 601.54 499.31 598.80
  Q 483.01 596.25 467.13 588.61
  C 433.46 572.43 405.12 543.18 395.68 506.33
  Q 392.80 495.10 391.37 481.40
  Q 388.76 456.43 387.46 436.32
  A 0.60 0.60 0.0 0 1 388.06 435.68
  L 635.39 435.68
  Z"
/>
<path fill="none" stroke-width="1.00" stroke="#377d79" vector-effect="non-scaling-stroke" d="
  M 180.29 468.77
  Q 190.77 494.27 205.48 517.57
  Q 210.20 525.05 215.06 532.43
  Q 118.48 532.19 22.07 532.29
  Q 10.99 532.30 0.00 530.78
  L 0.00 466.10
  Q 13.77 468.24 22.00 468.23
  Q 81.07 468.12 140.14 468.26
  Q 160.18 468.30 180.29 468.77
  Z"
/>
<path fill="none" stroke-width="1.00" stroke="#377d79" vector-effect="non-scaling-stroke" d="
  M 1024.00 477.64
  L 1024.00 537.54
  Q 1012.21 532.41 997.27 532.38
  Q 922.25 532.21 847.24 532.34
  C 837.31 532.36 821.46 531.88 808.50 532.27
  Q 829.32 502.97 842.76 469.83
  Q 855.34 468.23 867.76 468.20
  Q 950.26 468.05 992.27 468.32
  C 1004.51 468.40 1014.03 470.06 1024.00 477.64
  Z"
/>
<path fill="none" stroke-width="1.00" stroke="#377d79" vector-effect="non-scaling-stroke" d="
  M 277.85 473.27
  Q 295.47 503.67 320.10 529.17
  Q 304.49 532.76 290.91 532.50
  C 276.50 532.23 266.08 532.31 253.13 536.12
  Q 229.58 507.56 213.81 473.70
  Q 245.80 472.07 277.85 473.27
  Z"
/>
<path fill="none" stroke-width="1.00" stroke="#377d79" vector-effect="non-scaling-stroke" d="
  M 746.06 474.26
  Q 759.23 477.01 767.97 477.06
  Q 787.90 477.18 808.18 477.71
  Q 792.32 510.93 768.04 538.51
  C 751.11 536.65 733.70 537.48 717.93 536.69
  Q 712.00 536.39 700.39 533.72
  Q 727.48 507.35 746.06 474.26
  Z"
/>
<path fill="none" stroke-width="1.00" stroke="#357b87" vector-effect="non-scaling-stroke" d="
  M 370.74 598.20
  Q 357.30 594.94 339.43 594.92
  Q 182.33 594.71 25.24 594.82
  Q 12.72 594.82 0.00 590.75
  L 0.00 530.78
  Q 10.99 532.30 22.07 532.29
  Q 118.48 532.19 215.06 532.43
  Q 226.66 548.98 240.25 563.90
  Q 246.51 570.76 249.68 571.90
  C 257.91 574.85 267.46 570.17 268.68 560.95
  C 269.39 555.52 268.42 553.30 264.48 549.12
  Q 258.58 542.85 253.13 536.12
  C 266.08 532.31 276.50 532.23 290.91 532.50
  Q 304.49 532.76 320.10 529.17
  Q 342.50 552.52 369.86 571.15
  A 2.23 2.21 -72.8 0 1 370.82 572.98
  L 370.74 598.20
  Z"
/>
<path fill="none" stroke-width="1.00" stroke="#357b87" vector-effect="non-scaling-stroke" d="
  M 1024.00 537.54
  L 1024.00 601.58
  C 1014.91 595.93 1007.38 594.89 996.42 594.88
  Q 824.88 594.81 653.30 594.86
  L 653.17 573.20
  A 2.26 2.26 0.0 0 1 654.16 571.31
  Q 678.84 554.50 700.39 533.72
  Q 712.00 536.39 717.93 536.69
  C 733.70 537.48 751.11 536.65 768.04 538.51
  C 764.61 543.13 760.29 546.77 756.89 551.35
  C 752.30 557.53 754.31 567.03 760.74 570.78
  C 766.83 574.32 773.69 572.78 778.66 567.90
  Q 795.34 551.53 808.50 532.27
  C 821.46 531.88 837.31 532.36 847.24 532.34
  Q 922.25 532.21 997.27 532.38
  Q 1012.21 532.41 1024.00 537.54
  Z"
/>
<path fill="none" stroke-width="1.00" stroke="#357993" vector-effect="non-scaling-stroke" d="
  M 370.74 598.20
  L 370.77 607.91
  A 0.85 0.85 0.0 0 1 370.28 608.68
  Q 367.96 609.76 365.42 610.62
  Q 309.32 629.61 254.30 651.24
  Q 243.56 648.69 229.50 648.61
  Q 111.52 647.91 22.98 648.40
  Q 9.67 648.48 0.00 640.01
  L 0.00 590.75
  Q 12.72 594.82 25.24 594.82
  Q 182.33 594.71 339.43 594.92
  Q 357.30 594.94 370.74 598.20
  Z"
/>
<path fill="none" stroke-width="1.00" stroke="#357993" vector-effect="non-scaling-stroke" d="
  M 1024.00 601.58
  L 1024.00 655.02
  Q 1016.60 649.73 1007.70 648.83
  C 1003.11 648.36 993.77 648.32 986.96 648.30
  Q 875.96 648.10 796.53 648.59
  Q 781.13 648.69 767.93 650.96
  Q 712.20 629.07 654.63 608.93
  A 2.25 2.24 -80.1 0 1 653.13 606.78
  L 653.30 594.86
  Q 824.88 594.81 996.42 594.88
  C 1007.38 594.89 1014.91 595.93 1024.00 601.58
  Z"
/>
<path fill="none" stroke-width="1.00" stroke="#091530" vector-effect="non-scaling-stroke" d="
  M 620.51 662.98
  Q 615.69 668.70 610.84 674.35
  Q 599.96 687.03 585.02 697.24
  Q 552.28 719.64 512.52 719.95
  Q 493.02 720.10 475.19 715.05
  C 452.24 708.54 431.49 694.70 415.73 677.01
  Q 407.34 667.59 404.08 663.57
  Q 423.40 655.82 428.93 636.14
  C 430.05 632.17 430.59 624.96 430.58 619.25
  Q 430.58 618.84 430.67 595.65
  A 0.43 0.42 21.0 0 1 431.38 595.34
  C 440.05 603.02 451.76 609.59 464.65 615.56
  C 497.71 630.87 535.38 629.49 567.37 613.00
  Q 581.28 605.82 593.08 595.92
  A 0.51 0.51 0.0 0 1 593.91 596.33
  Q 593.30 609.70 594.01 627.15
  Q 594.67 643.10 605.99 654.79
  C 609.51 658.41 615.22 662.49 620.51 662.98
  Z"
/>
<path fill="none" stroke-width="1.00" stroke="#3477a2" vector-effect="non-scaling-stroke" d="
  M 254.30 651.24
  Q 242.46 656.30 233.13 661.13
  Q 215.21 670.41 199.45 684.50
  C 195.22 688.29 191.19 693.16 187.72 697.46
  Q 181.98 704.55 178.10 711.40
  Q 163.20 737.73 161.61 768.00
  L 0.00 768.00
  L 0.00 640.01
  Q 9.67 648.48 22.98 648.40
  Q 111.52 647.91 229.50 648.61
  Q 243.56 648.69 254.30 651.24
  Z"
/>
<path fill="none" stroke-width="1.00" stroke="#58c1e4" vector-effect="non-scaling-stroke" d="
  M 389.97 643.82
  Q 395.21 654.82 404.08 663.57
  Q 407.34 667.59 415.73 677.01
  C 431.49 694.70 452.24 708.54 475.19 715.05
  Q 493.02 720.10 512.52 719.95
  Q 552.28 719.64 585.02 697.24
  Q 599.96 687.03 610.84 674.35
  Q 615.69 668.70 620.51 662.98
  L 633.17 645.72
  A 0.54 0.54 0.0 0 0 633.09 644.98
  Q 631.65 643.74 631.85 643.20
  C 639.46 643.31 643.93 645.15 650.27 647.46
  Q 743.74 681.60 756.28 686.31
  C 765.95 689.94 777.81 695.11 786.48 701.16
  Q 811.85 718.88 821.82 748.53
  C 823.79 754.36 824.73 761.51 825.93 768.00
  L 800.23 768.00
  Q 792.54 728.62 755.51 713.32
  Q 742.99 708.15 731.53 703.95
  Q 687.42 687.80 646.02 673.06
  A 2.05 2.04 27.1 0 0 643.65 673.82
  C 623.02 703.63 594.50 727.66 559.62 738.77
  Q 530.56 748.02 498.29 745.38
  Q 442.75 740.85 402.38 700.17
  Q 389.54 687.23 380.32 673.84
  A 1.99 1.98 -27.0 0 0 378.02 673.10
  Q 335.64 688.16 290.84 704.67
  Q 272.35 711.48 266.45 714.13
  Q 231.20 729.95 223.85 768.00
  L 198.17 768.00
  C 199.13 762.21 200.02 756.18 201.71 750.78
  Q 214.29 710.43 253.09 692.34
  Q 257.24 690.41 274.30 683.82
  Q 285.08 679.66 295.71 675.81
  Q 350.48 655.97 380.41 644.70
  Q 385.88 642.64 389.97 643.82
  Z"
/>
<path fill="none" stroke-width="1.00" stroke="#3477a2" vector-effect="non-scaling-stroke" d="
  M 1024.00 655.02
  L 1024.00 767.00
  Q 1023.80 767.58 1023.34 768.00
  L 863.10 768.00
  Q 862.27 762.87 862.04 760.70
  Q 857.65 719.39 830.41 690.23
  C 813.72 672.37 790.23 660.43 767.93 650.96
  Q 781.13 648.69 796.53 648.59
  Q 875.96 648.10 986.96 648.30
  C 993.77 648.32 1003.11 648.36 1007.70 648.83
  Q 1016.60 649.73 1024.00 655.02
  Z"
/>
<path fill="none" stroke-width="1.00" stroke="#091530" vector-effect="non-scaling-stroke" d="
  M 800.23 768.00
  L 223.85 768.00
  Q 231.20 729.95 266.45 714.13
  Q 272.35 711.48 290.84 704.67
  Q 335.64 688.16 378.02 673.10
  A 1.99 1.98 -27.0 0 1 380.32 673.84
  Q 389.54 687.23 402.38 700.17
  Q 442.75 740.85 498.29 745.38
  Q 530.56 748.02 559.62 738.77
  C 594.50 727.66 623.02 703.63 643.65 673.82
  A 2.05 2.04 27.1 0 1 646.02 673.06
  Q 687.42 687.80 731.53 703.95
  Q 742.99 708.15 755.51 713.32
  Q 792.54 728.62 800.23 768.00
  Z"
/>
<path fill="none" stroke-width="1.00" stroke="#3c8737" vector-effect="non-scaling-stroke" d="
  M 1024.00 767.00
  L 1024.00 768.00
  L 1023.34 768.00
  Q 1023.80 767.58 1024.00 767.00
  Z"
/>
</svg>
